<?xml version="1.0" encoding="UTF-8"?>
<svg xmlns="http://www.w3.org/2000/svg" xmlns:xlink="http://www.w3.org/1999/xlink" width="40px" height="40px" viewBox="0 0 40 40" version="1.1">
<g id="surface1">
<path style=" stroke:none;fill-rule:nonzero;fill:rgb(0%,0%,0%);fill-opacity:1;" d="M 1.25 12.5 L 38.75 12.5 C 39.441406 12.5 40 11.941406 40 11.25 C 40 10.558594 39.441406 10 38.75 10 L 1.25 10 C 0.558594 10 0 10.558594 0 11.25 C 0 11.941406 0.558594 12.5 1.25 12.5 Z M 1.25 12.5 "/>
<path style=" stroke:none;fill-rule:nonzero;fill:rgb(0%,0%,0%);fill-opacity:1;" d="M 38.75 18.75 L 1.25 18.75 C 0.558594 18.75 0 19.308594 0 20 C 0 20.691406 0.558594 21.25 1.25 21.25 L 38.75 21.25 C 39.441406 21.25 40 20.691406 40 20 C 40 19.308594 39.441406 18.75 38.75 18.75 Z M 38.75 18.75 "/>
<path style=" stroke:none;fill-rule:nonzero;fill:rgb(0%,0%,0%);fill-opacity:1;" d="M 38.75 27.5 L 13.75 27.5 C 13.058594 27.5 12.5 28.058594 12.5 28.75 C 12.5 29.441406 13.058594 30 13.75 30 L 38.75 30 C 39.441406 30 40 29.441406 40 28.75 C 40 28.058594 39.441406 27.5 38.75 27.5 Z M 38.75 27.5 "/>
</g>
</svg>
