<?xml version="1.0" standalone="no"?>
<!DOCTYPE svg PUBLIC "-//W3C//DTD SVG 20010904//EN"
 "http://www.w3.org/TR/2001/REC-SVG-20010904/DTD/svg10.dtd">
<svg version="1.0" xmlns="http://www.w3.org/2000/svg"
 width="512.000000pt" height="512.000000pt" viewBox="0 0 512.000000 512.000000"
 preserveAspectRatio="xMidYMid meet">

<g transform="translate(0.000000,512.000000) scale(0.100000,-0.100000)"
fill="#000000" stroke="none">
<path d="M585 3970 c-74 -11 -212 -55 -249 -79 l-27 -18 38 -16 c21 -8 96 -43
168 -77 72 -34 152 -71 179 -83 l48 -20 -60 -30 c-71 -35 -138 -88 -192 -153
-40 -49 -95 -150 -106 -196 -6 -26 -5 -27 23 -19 166 49 313 91 320 91 5 0 14
-13 20 -30 12 -32 66 -70 99 -70 20 0 20 -1 -7 -82 -77 -231 -125 -565 -115
-798 9 -184 29 -338 61 -465 75 -291 166 -495 296 -661 l47 -61 -131 -33
c-150 -38 -278 -77 -291 -91 -14 -13 244 -264 366 -355 326 -243 685 -389
1098 -445 140 -20 459 -17 600 5 342 52 675 178 944 356 l98 65 -38 33 c-150
129 -421 271 -697 364 -97 32 -351 98 -379 98 -10 0 -18 7 -18 15 0 17 -30 35
-59 35 -20 0 -21 5 -21 133 0 74 -3 202 -7 286 l-6 152 -35 -3 -34 -3 1 -381
c1 -209 -1 -388 -5 -397 -6 -15 -34 -17 -309 -17 -281 0 -304 1 -309 18 -3 9
-4 188 -4 397 l2 380 -36 3 -35 3 -6 -267 c-4 -147 -9 -269 -11 -272 -5 -4
-218 -20 -224 -17 -1 1 -10 35 -19 76 -13 55 -17 120 -17 249 1 151 4 193 28
305 80 385 278 769 503 975 60 55 69 60 78 44 25 -45 54 -64 96 -64 34 0 47 6
74 34 l32 34 26 -61 c14 -34 50 -118 80 -187 30 -69 62 -142 71 -164 14 -33
18 -37 32 -25 22 19 58 94 79 169 22 75 25 212 6 279 -7 23 -11 44 -9 46 2 2
84 -28 183 -65 99 -38 181 -67 182 -66 7 6 -23 101 -52 163 -39 85 -140 195
-213 232 -101 51 -222 62 -307 27 l-33 -14 -4 87 c-6 108 -31 165 -108 242
-97 98 -213 143 -367 144 -56 0 -104 -3 -108 -7 -4 -3 50 -72 119 -151 69 -80
126 -148 126 -151 0 -3 -17 -6 -37 -6 -113 -1 -231 -57 -334 -160 l-76 -76
-11 60 c-15 79 -70 190 -121 243 -23 23 -41 45 -41 48 0 3 84 5 186 5 l185 0
-18 31 c-36 63 -132 147 -212 187 -144 72 -269 76 -394 13 l-57 -30 -11 22
c-80 153 -317 249 -534 217z m838 -827 c171 -166 172 -167 178 -138 4 17 7 59
8 94 l1 63 108 -6 c171 -11 179 -13 186 -48 3 -16 22 -46 42 -66 35 -35 35
-36 17 -58 -228 -280 -340 -473 -437 -753 -93 -267 -130 -476 -130 -742 l-1
-196 -29 12 c-58 25 -151 102 -207 172 -182 229 -284 572 -294 983 -6 282 34
491 135 708 21 45 42 82 45 82 4 0 18 -9 32 -20 31 -24 90 -26 120 -5 12 8 27
31 33 50 6 19 14 35 16 35 3 0 82 -75 177 -167z m1378 -2148 c28 -32 36 -35
85 -35 39 0 54 4 54 14 0 22 28 39 54 32 51 -13 40 -90 -13 -85 -18 2 -39 -7
-64 -26 -36 -29 -37 -32 -37 -92 0 -51 3 -63 16 -63 9 0 14 -6 12 -12 -3 -7
-20 -13 -38 -13 -18 0 -35 6 -37 13 -3 6 2 12 11 12 13 0 16 12 16 63 0 61 -1
64 -45 107 -41 40 -44 46 -26 50 20 5 20 5 0 30 -19 24 -20 25 -34 6 -17 -23
-20 -14 -5 15 14 25 16 25 51 -16z"/>
<path d="M4426 3483 c-12 -12 -6 -43 9 -43 8 0 15 9 15 19 0 21 -13 34 -24 24z"/>
<path d="M3324 3056 c-7 -19 3 -36 22 -36 10 0 14 8 12 22 -4 26 -26 36 -34
14z"/>
<path d="M4050 2830 c0 -7 143 -10 410 -10 267 0 410 3 410 10 0 7 -143 10
-410 10 -267 0 -410 -3 -410 -10z"/>
<path d="M4203 2743 c15 -2 37 -2 50 0 12 2 0 4 -28 4 -27 0 -38 -2 -22 -4z"/>
<path d="M2955 2422 c-3 -3 -5 -9 -5 -14 0 -4 187 -8 416 -8 328 0 415 3 411
13 -3 9 -95 12 -410 13 -224 1 -409 -1 -412 -4z"/>
<path d="M3113 2323 c15 -2 37 -2 50 0 12 2 0 4 -28 4 -27 0 -38 -2 -22 -4z"/>
</g>
</svg>
